<svg width="55" height="53" viewBox="0 0 55 53" fill="none" xmlns="http://www.w3.org/2000/svg">
<path d="M41.236 0H13.764C6.17436 0 0 6.17436 0 13.764V38.8969C0 46.4866 6.17436 52.6609 13.764 52.6609H41.236C48.8256 52.6609 55 46.4866 55 38.8969V13.764C55 6.17436 48.8256 0 41.236 0ZM4.85551 13.764C4.85551 8.85251 8.8525 4.8555 13.764 4.8555H41.236C46.1475 4.8555 50.1445 8.85251 50.1445 13.764V38.8969C50.1445 43.8084 46.1475 47.8054 41.236 47.8054H13.764C8.8525 47.8054 4.85551 43.8084 4.85551 38.8969V13.764Z" fill="url(#paint0_linear_8_7)"/>
<path d="M27.5001 39.1302C34.5578 39.1302 40.3029 33.3882 40.3029 26.3273C40.3029 19.2665 34.561 13.5245 27.5001 13.5245C20.4392 13.5245 14.6972 19.2665 14.6972 26.3273C14.6972 33.3882 20.4392 39.1302 27.5001 39.1302ZM27.5001 18.3831C31.8828 18.3831 35.4474 21.9478 35.4474 26.3305C35.4474 30.7132 31.8828 34.2778 27.5001 34.2778C23.1174 34.2778 19.5527 30.7132 19.5527 26.3305C19.5527 21.9478 23.1174 18.3831 27.5001 18.3831Z" fill="url(#paint1_linear_8_7)"/>
<path d="M41.488 15.593C43.3886 15.593 44.9376 14.0471 44.9376 12.1435C44.9376 10.2398 43.3917 8.69392 41.488 8.69392C39.5844 8.69392 38.0385 10.2398 38.0385 12.1435C38.0385 14.0471 39.5844 15.593 41.488 15.593Z" fill="url(#paint2_linear_8_7)"/>
<defs>
<linearGradient id="paint0_linear_8_7" x1="4.6191" y1="49.2083" x2="50.3778" y2="3.4527" gradientUnits="userSpaceOnUse">
<stop stop-color="#FAAD4F"/>
<stop offset="0.35" stop-color="#DD2A7B"/>
<stop offset="0.62" stop-color="#9537B0"/>
<stop offset="1" stop-color="#515BD4"/>
</linearGradient>
<linearGradient id="paint1_linear_8_7" x1="8.06426" y1="44.946" x2="45.2408" y2="6.11152" gradientUnits="userSpaceOnUse">
<stop stop-color="#FAAD4F"/>
<stop offset="0.35" stop-color="#DD2A7B"/>
<stop offset="0.62" stop-color="#9537B0"/>
<stop offset="1" stop-color="#515BD4"/>
</linearGradient>
<linearGradient id="paint2_linear_8_7" x1="39.0494" y1="14.5821" x2="43.9267" y2="9.70481" gradientUnits="userSpaceOnUse">
<stop stop-color="#FAAD4F"/>
<stop offset="0.35" stop-color="#DD2A7B"/>
<stop offset="0.62" stop-color="#9537B0"/>
<stop offset="1" stop-color="#515BD4"/>
</linearGradient>
</defs>
</svg>
