<svg width="60" height="60" viewBox="0 0 60 60" fill="none" xmlns="http://www.w3.org/2000/svg">
<path d="M0 59.9999L4.21749 44.5924C1.615 40.0824 0.247499 34.9699 0.249999 29.7274C0.257499 13.3375 13.595 0 29.9824 0C37.9349 0.00249999 45.3999 3.09999 51.0149 8.71998C56.6274 14.34 59.7174 21.81 59.7149 29.7549C59.7074 46.1474 46.3699 59.4849 29.9824 59.4849C25.0074 59.4824 20.105 58.2349 15.7625 55.8649L0 59.9999ZM16.4925 50.4824C20.6825 52.9699 24.6824 54.4599 29.9724 54.4624C43.5924 54.4624 54.6874 43.3774 54.6949 29.7499C54.6999 16.095 43.6574 5.02499 29.9924 5.01999C16.3625 5.01999 5.27499 16.105 5.26999 29.7299C5.26749 35.2924 6.89749 39.4574 9.63498 43.8149L7.13748 52.9349L16.4925 50.4824ZM44.9599 36.8224C44.7749 36.5124 44.2799 36.3274 43.5349 35.9549C42.7924 35.5824 39.1399 33.7849 38.4574 33.5374C37.7774 33.2899 37.2824 33.1649 36.7849 33.9099C36.2899 34.6524 34.8649 36.3274 34.4324 36.8224C33.9999 37.3174 33.5649 37.3799 32.8224 37.0074C32.0799 36.6349 29.6849 35.8524 26.8474 33.3199C24.6399 31.3499 23.1474 28.9174 22.7149 28.1724C22.2824 27.4299 22.67 27.0274 23.0399 26.6574C23.3749 26.3249 23.7824 25.7899 24.1549 25.3549C24.5324 24.9249 24.6549 24.6149 24.9049 24.1174C25.1524 23.6224 25.0299 23.1875 24.8424 22.815C24.6549 22.445 23.1699 18.7875 22.5525 17.3C21.9475 15.8525 21.335 16.0475 20.88 16.025L19.455 16C18.96 16 18.155 16.185 17.475 16.93C16.795 17.675 14.875 19.47 14.875 23.1275C14.875 26.7849 17.5375 30.3174 17.9075 30.8124C18.28 31.3074 23.1449 38.8124 30.5974 42.0299C32.3699 42.7949 33.7549 43.2524 34.8324 43.5949C36.6124 44.1599 38.2324 44.0799 39.5124 43.8899C40.9399 43.6774 43.9074 42.0924 44.5274 40.3574C45.1474 38.6199 45.1474 37.1324 44.9599 36.8224Z" fill="#25D366"/>
</svg>
