<svg width="81" height="55" viewBox="0 0 81 55" fill="none" xmlns="http://www.w3.org/2000/svg">
<path d="M78.4066 8.845C77.9543 7.20687 77.063 5.71181 75.8217 4.50944C74.5805 3.30707 73.0329 2.43957 71.3339 1.99375C65.0793 0.375 40.0793 0.375 40.0793 0.375C40.0793 0.375 15.0793 0.375 8.8248 1.99375C7.12578 2.43957 5.57821 3.30707 4.33697 4.50944C3.09573 5.71181 2.20436 7.20687 1.75207 8.845C0.0793459 14.8912 0.0793457 27.5 0.0793457 27.5C0.0793457 27.5 0.0793459 40.1087 1.75207 46.155C2.20436 47.7931 3.09573 49.2882 4.33697 50.4906C5.57821 51.6929 7.12578 52.5604 8.8248 53.0062C15.0793 54.625 40.0793 54.625 40.0793 54.625C40.0793 54.625 65.0793 54.625 71.3339 53.0062C73.0329 52.5604 74.5805 51.6929 75.8217 50.4906C77.063 49.2882 77.9543 47.7931 78.4066 46.155C80.0794 40.1087 80.0793 27.5 80.0793 27.5C80.0793 27.5 80.0794 14.8912 78.4066 8.845Z" fill="#FF0302"/>
<path d="M31.8976 38.9495V16.0507L52.8067 27.5001L31.8976 38.9495Z" fill="#FEFEFE"/>
</svg>
